<mxfile host="app.diagrams.net" modified="2023-11-02T01:38:17.801Z" agent="Mozilla/5.0 (Windows NT 10.0; Win64; x64) AppleWebKit/537.36 (KHTML, like Gecko) Chrome/118.0.0.0 Safari/537.36" etag="IFrcD_NJ1UXVcGwOFvSl" version="22.0.8" type="github">
  <diagram name="Page-1" id="epQlulGzkVziAUwQtivA">
    <mxGraphModel dx="1434" dy="782" grid="1" gridSize="10" guides="1" tooltips="1" connect="1" arrows="1" fold="1" page="1" pageScale="1" pageWidth="827" pageHeight="1169" math="0" shadow="0">
      <root>
        <mxCell id="0" />
        <mxCell id="1" parent="0" />
        <mxCell id="6Qxye0WHHuZWl24sxj-j-1" value="" style="image;aspect=fixed;perimeter=ellipsePerimeter;html=1;align=center;shadow=0;dashed=0;spacingTop=3;image=img/lib/active_directory/databases.svg;" vertex="1" parent="1">
          <mxGeometry x="100" y="231" width="50" height="49" as="geometry" />
        </mxCell>
        <mxCell id="6Qxye0WHHuZWl24sxj-j-2" value="" style="image;aspect=fixed;perimeter=ellipsePerimeter;html=1;align=center;shadow=0;dashed=0;spacingTop=3;image=img/lib/active_directory/databases.svg;" vertex="1" parent="1">
          <mxGeometry x="260" y="231" width="50" height="49" as="geometry" />
        </mxCell>
        <mxCell id="6Qxye0WHHuZWl24sxj-j-3" value="" style="image;aspect=fixed;perimeter=ellipsePerimeter;html=1;align=center;shadow=0;dashed=0;spacingTop=3;image=img/lib/active_directory/databases.svg;" vertex="1" parent="1">
          <mxGeometry x="630" y="231" width="50" height="49" as="geometry" />
        </mxCell>
        <mxCell id="6Qxye0WHHuZWl24sxj-j-4" value="" style="image;aspect=fixed;perimeter=ellipsePerimeter;html=1;align=center;shadow=0;dashed=0;spacingTop=3;image=img/lib/active_directory/generic_server.svg;" vertex="1" parent="1">
          <mxGeometry x="430.25" y="231" width="28.000000000000004" height="50" as="geometry" />
        </mxCell>
        <mxCell id="6Qxye0WHHuZWl24sxj-j-5" value="" style="image;aspect=fixed;perimeter=ellipsePerimeter;html=1;align=center;shadow=0;dashed=0;spacingTop=3;image=img/lib/active_directory/documents.svg;" vertex="1" parent="1">
          <mxGeometry x="109" y="110" width="33" height="50" as="geometry" />
        </mxCell>
        <mxCell id="6Qxye0WHHuZWl24sxj-j-6" value="" style="image;aspect=fixed;perimeter=ellipsePerimeter;html=1;align=center;shadow=0;dashed=0;spacingTop=3;image=img/lib/active_directory/documents.svg;" vertex="1" parent="1">
          <mxGeometry x="269" y="110" width="33" height="50" as="geometry" />
        </mxCell>
        <mxCell id="6Qxye0WHHuZWl24sxj-j-7" value="" style="image;aspect=fixed;perimeter=ellipsePerimeter;html=1;align=center;shadow=0;dashed=0;spacingTop=3;image=img/lib/active_directory/generic_server.svg;" vertex="1" parent="1">
          <mxGeometry x="430" y="440" width="28.000000000000004" height="50" as="geometry" />
        </mxCell>
        <mxCell id="6Qxye0WHHuZWl24sxj-j-8" value="" style="image;aspect=fixed;perimeter=ellipsePerimeter;html=1;align=center;shadow=0;dashed=0;spacingTop=3;image=img/lib/active_directory/user.svg;" vertex="1" parent="1">
          <mxGeometry x="435" y="585" width="18.5" height="50" as="geometry" />
        </mxCell>
        <mxCell id="6Qxye0WHHuZWl24sxj-j-9" value="" style="endArrow=classic;html=1;rounded=0;exitX=0.5;exitY=1;exitDx=0;exitDy=0;entryX=0.5;entryY=0;entryDx=0;entryDy=0;" edge="1" parent="1" source="6Qxye0WHHuZWl24sxj-j-5" target="6Qxye0WHHuZWl24sxj-j-1">
          <mxGeometry width="50" height="50" relative="1" as="geometry">
            <mxPoint x="390" y="480" as="sourcePoint" />
            <mxPoint x="440" y="430" as="targetPoint" />
          </mxGeometry>
        </mxCell>
        <mxCell id="6Qxye0WHHuZWl24sxj-j-10" value="" style="endArrow=classic;html=1;rounded=0;exitX=1;exitY=0.5;exitDx=0;exitDy=0;entryX=0;entryY=0.5;entryDx=0;entryDy=0;" edge="1" parent="1" source="6Qxye0WHHuZWl24sxj-j-2" target="6Qxye0WHHuZWl24sxj-j-4">
          <mxGeometry width="50" height="50" relative="1" as="geometry">
            <mxPoint x="272" y="490" as="sourcePoint" />
            <mxPoint x="322" y="440" as="targetPoint" />
          </mxGeometry>
        </mxCell>
        <mxCell id="6Qxye0WHHuZWl24sxj-j-11" value="" style="endArrow=classic;html=1;rounded=0;entryX=0.5;entryY=0;entryDx=0;entryDy=0;exitX=0.5;exitY=1;exitDx=0;exitDy=0;" edge="1" parent="1" source="6Qxye0WHHuZWl24sxj-j-6" target="6Qxye0WHHuZWl24sxj-j-2">
          <mxGeometry width="50" height="50" relative="1" as="geometry">
            <mxPoint x="172" y="440" as="sourcePoint" />
            <mxPoint x="222" y="390" as="targetPoint" />
          </mxGeometry>
        </mxCell>
        <mxCell id="6Qxye0WHHuZWl24sxj-j-12" value="" style="endArrow=classic;html=1;rounded=0;entryX=0;entryY=0.5;entryDx=0;entryDy=0;exitX=1;exitY=0.5;exitDx=0;exitDy=0;" edge="1" parent="1" source="6Qxye0WHHuZWl24sxj-j-4" target="6Qxye0WHHuZWl24sxj-j-3">
          <mxGeometry width="50" height="50" relative="1" as="geometry">
            <mxPoint x="580" y="340" as="sourcePoint" />
            <mxPoint x="440" y="430" as="targetPoint" />
          </mxGeometry>
        </mxCell>
        <mxCell id="6Qxye0WHHuZWl24sxj-j-13" value="" style="endArrow=classic;html=1;rounded=0;exitX=0.5;exitY=1;exitDx=0;exitDy=0;entryX=0;entryY=0.5;entryDx=0;entryDy=0;" edge="1" parent="1" source="6Qxye0WHHuZWl24sxj-j-1" target="6Qxye0WHHuZWl24sxj-j-7">
          <mxGeometry width="50" height="50" relative="1" as="geometry">
            <mxPoint x="390" y="480" as="sourcePoint" />
            <mxPoint x="440" y="430" as="targetPoint" />
            <Array as="points">
              <mxPoint x="125" y="465" />
            </Array>
          </mxGeometry>
        </mxCell>
        <mxCell id="6Qxye0WHHuZWl24sxj-j-14" value="" style="endArrow=classic;startArrow=classic;html=1;rounded=0;entryX=0.5;entryY=1;entryDx=0;entryDy=0;exitX=0.5;exitY=0;exitDx=0;exitDy=0;" edge="1" parent="1" source="6Qxye0WHHuZWl24sxj-j-8" target="6Qxye0WHHuZWl24sxj-j-7">
          <mxGeometry width="50" height="50" relative="1" as="geometry">
            <mxPoint x="260" y="570" as="sourcePoint" />
            <mxPoint x="310" y="520" as="targetPoint" />
          </mxGeometry>
        </mxCell>
        <mxCell id="6Qxye0WHHuZWl24sxj-j-15" value="" style="endArrow=classic;html=1;rounded=0;entryX=1;entryY=0.5;entryDx=0;entryDy=0;exitX=0.5;exitY=1;exitDx=0;exitDy=0;" edge="1" parent="1" source="6Qxye0WHHuZWl24sxj-j-3" target="6Qxye0WHHuZWl24sxj-j-7">
          <mxGeometry width="50" height="50" relative="1" as="geometry">
            <mxPoint x="390" y="480" as="sourcePoint" />
            <mxPoint x="440" y="430" as="targetPoint" />
            <Array as="points">
              <mxPoint x="655" y="465" />
            </Array>
          </mxGeometry>
        </mxCell>
        <mxCell id="6Qxye0WHHuZWl24sxj-j-16" value="Json Restaurants Donnees Quebec" style="text;html=1;strokeColor=none;fillColor=none;align=center;verticalAlign=middle;whiteSpace=wrap;rounded=0;" vertex="1" parent="1">
          <mxGeometry x="95" y="50" width="60" height="30" as="geometry" />
        </mxCell>
        <mxCell id="6Qxye0WHHuZWl24sxj-j-17" value="Mongodb Restaurants" style="text;html=1;strokeColor=none;fillColor=none;align=center;verticalAlign=middle;whiteSpace=wrap;rounded=0;" vertex="1" parent="1">
          <mxGeometry x="40" y="281" width="60" height="30" as="geometry" />
        </mxCell>
        <mxCell id="6Qxye0WHHuZWl24sxj-j-19" value="Mongodb Piste Cyclable" style="text;html=1;strokeColor=none;fillColor=none;align=center;verticalAlign=middle;whiteSpace=wrap;rounded=0;" vertex="1" parent="1">
          <mxGeometry x="180" y="280" width="80" height="30" as="geometry" />
        </mxCell>
        <mxCell id="6Qxye0WHHuZWl24sxj-j-20" value="Backend" style="text;html=1;strokeColor=none;fillColor=none;align=center;verticalAlign=middle;whiteSpace=wrap;rounded=0;" vertex="1" parent="1">
          <mxGeometry x="414.25" y="281" width="60" height="30" as="geometry" />
        </mxCell>
        <mxCell id="6Qxye0WHHuZWl24sxj-j-21" value="Transforme donnees" style="text;html=1;strokeColor=none;fillColor=none;align=center;verticalAlign=middle;whiteSpace=wrap;rounded=0;" vertex="1" parent="1">
          <mxGeometry x="414.25" y="190" width="60" height="30" as="geometry" />
        </mxCell>
        <mxCell id="6Qxye0WHHuZWl24sxj-j-22" value="Json &lt;br&gt;Piste Cyclable Donnees Quebec" style="text;html=1;strokeColor=none;fillColor=none;align=center;verticalAlign=middle;whiteSpace=wrap;rounded=0;" vertex="1" parent="1">
          <mxGeometry x="238" y="50" width="95" height="30" as="geometry" />
        </mxCell>
        <mxCell id="6Qxye0WHHuZWl24sxj-j-23" value="Neo4j&lt;br&gt;Reseau Cyclable" style="text;html=1;strokeColor=none;fillColor=none;align=center;verticalAlign=middle;whiteSpace=wrap;rounded=0;" vertex="1" parent="1">
          <mxGeometry x="680" y="280" width="100" height="30" as="geometry" />
        </mxCell>
        <mxCell id="6Qxye0WHHuZWl24sxj-j-24" value="Utilisateur" style="text;html=1;strokeColor=none;fillColor=none;align=center;verticalAlign=middle;whiteSpace=wrap;rounded=0;" vertex="1" parent="1">
          <mxGeometry x="470" y="595" width="60" height="30" as="geometry" />
        </mxCell>
        <mxCell id="6Qxye0WHHuZWl24sxj-j-25" value="Requete&lt;br&gt;Reponse" style="text;html=1;strokeColor=none;fillColor=none;align=center;verticalAlign=middle;whiteSpace=wrap;rounded=0;" vertex="1" parent="1">
          <mxGeometry x="470" y="520" width="60" height="30" as="geometry" />
        </mxCell>
        <mxCell id="6Qxye0WHHuZWl24sxj-j-26" value="Retour de noeuds suivant un trajet" style="text;html=1;strokeColor=none;fillColor=none;align=center;verticalAlign=middle;whiteSpace=wrap;rounded=0;" vertex="1" parent="1">
          <mxGeometry x="490" y="420" width="100" height="30" as="geometry" />
        </mxCell>
        <mxCell id="6Qxye0WHHuZWl24sxj-j-27" value="Retour des restaurants autour des noeuds retournés" style="text;html=1;strokeColor=none;fillColor=none;align=center;verticalAlign=middle;whiteSpace=wrap;rounded=0;" vertex="1" parent="1">
          <mxGeometry x="238" y="420" width="160" height="30" as="geometry" />
        </mxCell>
      </root>
    </mxGraphModel>
  </diagram>
</mxfile>
